#N canvas 0 1 1280 734 10;
#X obj -211 -32 soundfiler;
#X floatatom -207 237 10 0 0 0 - - -;
#X obj -322 -59 bng 15 250 50 0 empty empty empty 17 7 0 10 -262144
-1 -1;
#X obj -154 262 / 44.1;
#X obj -231 320 +;
#X obj -231 288 *;
#X obj -340 538 dac~;
#X floatatom -154 288 7 0 0 0 - - -;
#X floatatom -231 352 8 0 0 0 - - -;
#X floatatom -340 353 8 0 0 0 - - -;
#X floatatom -251 238 5 0 0 0 - - -;
#X obj -251 171 random 8;
#X obj -207 261 / 8;
#X obj -231 412 pack f f;
#X floatatom -154 361 7 0 0 0 - - -;
#X obj -410 474 unsig~ 50;
#X obj -492 299 hsl 195 15 0 352577 0 0 empty empty empty -2 -8 0 10
-262144 -1 -1 151 1;
#X obj -340 442 line~;
#X floatatom -410 506 10 0 0 0 - - -;
#X obj -154 311 / 8;
#N canvas 0 0 450 300 (subpatch) 0;
#X array array1 7301 float 2;
#X coords 0 1 7301 -1 200 140 1;
#X restore -495 148 graph;
#X obj -340 474 tabread4~ array1;
#X obj -340 384 pack f f;
#X floatatom -280 353 5 0 0 0 - - -;
#X obj -322 -32 trigger bang bang;
#X floatatom -206 139 5 0 0 0 - - -;
#X obj -322 -83 metro;
#X obj -322 -108 tgl 15 0 empty empty empty 17 7 0 10 -262144 -1 -1
0 1;
#X obj -300 82 select 0 1 2 3 4 5;
#X obj -300 58 random 6;
#X msg -339 107 16;
#X msg -306 107 32;
#X msg -273 107 64;
#X msg -240 107 128;
#X obj -81 158 vsl 15 128 0.1 4 0 0 empty empty empty 0 -9 0 10 -262144
-1 -1 4000 1;
#X obj -154 337 /;
#X obj -340 506 *~ 0.9;
#X msg -206 107 4;
#X obj -154 385 spigot;
#X obj -97 361 tgl 15 0 empty empty empty 17 7 0 10 -262144 -1 -1 0
1;
#X obj -300 34 spigot;
#X obj -197 3 tgl 15 0 empty empty empty 17 7 0 10 -262144 -1 -1 0
1;
#X text -72 360 vary note length;
#X text -172 1 vary scaler;
#X obj -340 410 spigot;
#X obj -97 395 tgl 15 0 empty empty empty 17 7 0 10 -262144 -1 -1 0
1;
#X text -70 394 jump to slice start;
#X msg -172 107 256;
#X text -89 131 speed;
#X floatatom -81 333 5 0 0 0 - - -;
#X obj -211 -82 openpanel;
#X text -302 -109 start playback;
#X obj -211 -130 bng 15 250 50 0 empty empty empty 17 7 0 10 -262144
-1 -1;
#X text -187 -131 click here to start;
#X msg -211 -57 read -resize \$1 array1;
#X connect 0 0 1 0;
#X connect 1 0 3 0;
#X connect 1 0 12 0;
#X connect 2 0 24 0;
#X connect 2 0 25 0;
#X connect 2 0 40 0;
#X connect 3 0 7 0;
#X connect 4 0 8 0;
#X connect 5 0 4 0;
#X connect 5 0 9 0;
#X connect 7 0 19 0;
#X connect 8 0 13 0;
#X connect 9 0 22 0;
#X connect 10 0 5 0;
#X connect 11 0 10 0;
#X connect 12 0 5 1;
#X connect 12 0 4 1;
#X connect 13 0 17 0;
#X connect 14 0 26 1;
#X connect 14 0 38 0;
#X connect 15 0 18 0;
#X connect 17 0 15 0;
#X connect 17 0 21 0;
#X connect 18 0 16 0;
#X connect 19 0 35 0;
#X connect 21 0 36 0;
#X connect 22 0 44 0;
#X connect 23 0 22 1;
#X connect 24 0 13 0;
#X connect 24 1 1 0;
#X connect 24 1 11 0;
#X connect 25 0 11 1;
#X connect 25 0 12 1;
#X connect 25 0 19 1;
#X connect 26 0 2 0;
#X connect 27 0 26 0;
#X connect 28 0 30 0;
#X connect 28 1 31 0;
#X connect 28 2 32 0;
#X connect 28 3 33 0;
#X connect 28 4 37 0;
#X connect 28 5 47 0;
#X connect 29 0 28 0;
#X connect 30 0 25 0;
#X connect 31 0 25 0;
#X connect 32 0 25 0;
#X connect 33 0 25 0;
#X connect 34 0 35 1;
#X connect 34 0 49 0;
#X connect 35 0 14 0;
#X connect 36 0 6 0;
#X connect 36 0 6 1;
#X connect 37 0 25 0;
#X connect 38 0 13 1;
#X connect 39 0 38 1;
#X connect 40 0 29 0;
#X connect 41 0 40 1;
#X connect 44 0 17 0;
#X connect 45 0 44 1;
#X connect 47 0 25 0;
#X connect 50 0 54 0;
#X connect 52 0 50 0;
#X connect 54 0 0 0;
#X coords 0 0 1 1 85 60 0;
