#N canvas 0 0 1280 734 10;
#X obj 20 36 tgl 15 0 empty empty empty 17 7 0 10 -262144 -1 -1 0 1
;
#X obj 20 103 bng 15 250 50 0 empty empty empty 17 7 0 10 -262144 -1
-1;
#X obj 20 130 f;
#X obj 56 129 + 1;
#X floatatom 20 176 5 0 0 0 - - -;
#X floatatom 70 46 5 0 0 0 - - -;
#X obj 20 77 metro;
#X obj 20 210 hradio 15 1 0 16 empty empty empty 0 -8 0 10 -262144
-1 -1 11;
#X obj 526 48 select 0 1 2 3 4 5 6 7 8 9 10 11 12 13 14 15;
#X obj 20 152 mod 16;
#X obj 342 92 WeightedRow;
#X obj 342 135 WeightedRow;
#X obj 342 178 WeightedRow;
#X obj 342 221 WeightedRow;
#X obj 342 265 WeightedRow;
#X obj 342 308 WeightedRow;
#X obj 342 351 WeightedRow;
#X obj 342 395 WeightedRow;
#X obj 342 454 s ot1;
#X obj 386 454 s ot2;
#X obj 431 454 s ot3;
#X obj 476 454 s ot4;
#X obj 520 454 s ot5;
#X obj 565 454 s ot6;
#X obj 610 454 s ot7;
#X obj 655 454 s ot8;
#X obj 709 91 WeightedRow;
#X obj 709 134 WeightedRow;
#X obj 709 177 WeightedRow;
#X obj 709 220 WeightedRow;
#X obj 709 264 WeightedRow;
#X obj 709 307 WeightedRow;
#X obj 709 350 WeightedRow;
#X obj 709 394 WeightedRow;
#X obj 709 453 s ot1;
#X obj 753 453 s ot2;
#X obj 798 453 s ot3;
#X obj 843 453 s ot4;
#X obj 887 453 s ot5;
#X obj 932 453 s ot6;
#X obj 977 453 s ot7;
#X obj 1022 453 s ot8;
#X obj 263 532 dac~ 1 2;
#X msg 77 96 0;
#X obj 77 73 bng 15 250 50 0 empty empty empty 17 7 0 10 -262144 -1
-1;
#X obj 37 266 SimpleSampler;
#X obj 37 232 r ot1;
#X obj 83 266 SimpleSampler;
#X obj 133 266 SimpleSampler;
#X obj 83 232 r ot2;
#X obj 133 232 r ot3;
#X obj 182 266 SimpleSampler;
#X obj 40 427 SimpleSampler;
#X obj 86 427 SimpleSampler;
#X obj 136 427 SimpleSampler;
#X obj 185 427 SimpleSampler;
#X obj 182 232 r ot4;
#X obj 40 393 r ot5;
#X obj 86 393 r ot6;
#X obj 136 393 r ot7;
#X obj 185 393 r ot8;
#X obj 59 294 vsl 15 64 0 1 0 0 empty empty empty 0 -9 0 10 -262144
-1 -1 4800 1;
#X obj 44 365 *~;
#X obj 282 398 vsl 15 64 0 1 0 0 empty empty empty 0 -9 0 10 -262144
-1 -1 4300 1;
#X obj 267 473 *~;
#X obj 106 294 vsl 15 64 0 1 0 0 empty empty empty 0 -9 0 10 -262144
-1 -1 4700 1;
#X obj 91 365 *~;
#X obj 155 294 vsl 15 64 0 1 0 0 empty empty empty 0 -9 0 10 -262144
-1 -1 4800 1;
#X obj 140 365 *~;
#X obj 204 293 vsl 15 64 0 1 0 0 empty empty empty 0 -9 0 10 -262144
-1 -1 4700 1;
#X obj 189 364 *~;
#X obj 61 455 vsl 15 64 0 1 0 0 empty empty empty 0 -9 0 10 -262144
-1 -1 4400 1;
#X obj 46 526 *~;
#X obj 108 455 vsl 15 64 0 1 0 0 empty empty empty 0 -9 0 10 -262144
-1 -1 4400 1;
#X obj 93 526 *~;
#X obj 157 455 vsl 15 64 0 1 0 0 empty empty empty 0 -9 0 10 -262144
-1 -1 4400 1;
#X obj 142 526 *~;
#X obj 206 454 vsl 15 64 0 1 0 0 empty empty empty 0 -9 0 10 -262144
-1 -1 4000 1;
#X obj 191 525 *~;
#X text 17 17 Start playback;
#X text 233 269 Sample Files;
#X text 232 291 Sample Volume;
#X text 258 374 Main Volume;
#X text 105 45 Step Delay;
#X text 98 71 Reset;
#X text 585 486 Probability Matrix (0-100 per step);
#X connect 0 0 6 0;
#X connect 1 0 2 0;
#X connect 2 0 3 0;
#X connect 2 0 9 0;
#X connect 3 0 2 1;
#X connect 4 0 7 0;
#X connect 5 0 6 1;
#X connect 6 0 1 0;
#X connect 7 0 8 0;
#X connect 8 0 10 0;
#X connect 8 1 11 0;
#X connect 8 2 12 0;
#X connect 8 3 13 0;
#X connect 8 4 14 0;
#X connect 8 5 15 0;
#X connect 8 6 16 0;
#X connect 8 7 17 0;
#X connect 8 8 26 0;
#X connect 8 9 27 0;
#X connect 8 10 28 0;
#X connect 8 11 29 0;
#X connect 8 12 30 0;
#X connect 8 13 31 0;
#X connect 8 14 32 0;
#X connect 8 15 33 0;
#X connect 9 0 4 0;
#X connect 10 0 18 0;
#X connect 10 1 19 0;
#X connect 10 2 20 0;
#X connect 10 3 21 0;
#X connect 10 4 22 0;
#X connect 10 5 23 0;
#X connect 10 6 24 0;
#X connect 10 7 25 0;
#X connect 11 0 18 0;
#X connect 11 1 19 0;
#X connect 11 2 20 0;
#X connect 11 3 21 0;
#X connect 11 4 22 0;
#X connect 11 5 23 0;
#X connect 11 6 24 0;
#X connect 11 7 25 0;
#X connect 12 0 18 0;
#X connect 12 1 19 0;
#X connect 12 2 20 0;
#X connect 12 3 21 0;
#X connect 12 4 22 0;
#X connect 12 5 23 0;
#X connect 12 6 24 0;
#X connect 12 7 25 0;
#X connect 13 0 18 0;
#X connect 13 1 19 0;
#X connect 13 2 20 0;
#X connect 13 3 21 0;
#X connect 13 4 22 0;
#X connect 13 5 23 0;
#X connect 13 6 24 0;
#X connect 13 7 25 0;
#X connect 14 0 18 0;
#X connect 14 1 19 0;
#X connect 14 2 20 0;
#X connect 14 3 21 0;
#X connect 14 4 22 0;
#X connect 14 5 23 0;
#X connect 14 6 24 0;
#X connect 14 7 25 0;
#X connect 15 0 18 0;
#X connect 15 1 19 0;
#X connect 15 2 20 0;
#X connect 15 3 21 0;
#X connect 15 4 22 0;
#X connect 15 5 23 0;
#X connect 15 6 24 0;
#X connect 15 7 25 0;
#X connect 16 0 18 0;
#X connect 16 1 19 0;
#X connect 16 2 20 0;
#X connect 16 3 21 0;
#X connect 16 4 22 0;
#X connect 16 5 23 0;
#X connect 16 6 24 0;
#X connect 16 7 25 0;
#X connect 17 0 18 0;
#X connect 17 1 19 0;
#X connect 17 2 20 0;
#X connect 17 3 21 0;
#X connect 17 4 22 0;
#X connect 17 5 23 0;
#X connect 17 6 24 0;
#X connect 17 7 25 0;
#X connect 26 0 34 0;
#X connect 26 1 35 0;
#X connect 26 2 36 0;
#X connect 26 3 37 0;
#X connect 26 4 38 0;
#X connect 26 5 39 0;
#X connect 26 6 40 0;
#X connect 26 7 41 0;
#X connect 27 0 34 0;
#X connect 27 1 35 0;
#X connect 27 2 36 0;
#X connect 27 3 37 0;
#X connect 27 4 38 0;
#X connect 27 5 39 0;
#X connect 27 6 40 0;
#X connect 27 7 41 0;
#X connect 28 0 34 0;
#X connect 28 1 35 0;
#X connect 28 2 36 0;
#X connect 28 3 37 0;
#X connect 28 4 38 0;
#X connect 28 5 39 0;
#X connect 28 6 40 0;
#X connect 28 7 41 0;
#X connect 29 0 34 0;
#X connect 29 1 35 0;
#X connect 29 2 36 0;
#X connect 29 3 37 0;
#X connect 29 4 38 0;
#X connect 29 5 39 0;
#X connect 29 6 40 0;
#X connect 29 7 41 0;
#X connect 30 0 34 0;
#X connect 30 1 35 0;
#X connect 30 2 36 0;
#X connect 30 3 37 0;
#X connect 30 4 38 0;
#X connect 30 5 39 0;
#X connect 30 6 40 0;
#X connect 30 7 41 0;
#X connect 31 0 34 0;
#X connect 31 1 35 0;
#X connect 31 2 36 0;
#X connect 31 3 37 0;
#X connect 31 4 38 0;
#X connect 31 5 39 0;
#X connect 31 6 40 0;
#X connect 31 7 41 0;
#X connect 32 0 34 0;
#X connect 32 1 35 0;
#X connect 32 2 36 0;
#X connect 32 3 37 0;
#X connect 32 4 38 0;
#X connect 32 5 39 0;
#X connect 32 6 40 0;
#X connect 32 7 41 0;
#X connect 33 0 34 0;
#X connect 33 1 35 0;
#X connect 33 2 36 0;
#X connect 33 3 37 0;
#X connect 33 4 38 0;
#X connect 33 5 39 0;
#X connect 33 6 40 0;
#X connect 33 7 41 0;
#X connect 43 0 2 1;
#X connect 44 0 43 0;
#X connect 45 0 62 0;
#X connect 46 0 45 0;
#X connect 47 0 66 0;
#X connect 48 0 68 0;
#X connect 49 0 47 0;
#X connect 50 0 48 0;
#X connect 51 0 70 0;
#X connect 52 0 72 0;
#X connect 53 0 74 0;
#X connect 54 0 76 0;
#X connect 55 0 78 0;
#X connect 56 0 51 0;
#X connect 57 0 52 0;
#X connect 58 0 53 0;
#X connect 59 0 54 0;
#X connect 60 0 55 0;
#X connect 61 0 62 1;
#X connect 62 0 64 0;
#X connect 63 0 64 1;
#X connect 64 0 42 0;
#X connect 64 0 42 1;
#X connect 65 0 66 1;
#X connect 66 0 64 0;
#X connect 67 0 68 1;
#X connect 68 0 64 0;
#X connect 69 0 70 1;
#X connect 70 0 64 0;
#X connect 71 0 72 1;
#X connect 72 0 64 0;
#X connect 73 0 74 1;
#X connect 74 0 64 0;
#X connect 75 0 76 1;
#X connect 76 0 64 0;
#X connect 77 0 78 1;
#X connect 78 0 64 0;
